<?xml version="1.0" encoding="UTF-8" standalone="no"?><!DOCTYPE svg PUBLIC "-//W3C//DTD SVG 1.1//EN" "http://www.w3.org/Graphics/SVG/1.1/DTD/svg11.dtd"><svg width="100%" height="100%" viewBox="0 0 24 24" version="1.1" xmlns="http://www.w3.org/2000/svg" xmlns:xlink="http://www.w3.org/1999/xlink" xml:space="preserve" xmlns:serif="http://www.serif.com/" style="fill-rule:evenodd;clip-rule:evenodd;stroke-linejoin:round;stroke-miterlimit:2;"><g id="Icon"><path d="M12,1.25c5.933,0 10.75,4.817 10.75,10.75c0,5.933 -4.817,10.75 -10.75,10.75c-5.933,0 -10.75,-4.817 -10.75,-10.75c0,-5.933 4.817,-10.75 10.75,-10.75Zm-2,7.25c0,-1.104 0.896,-2 2,-2c1.104,0 2,0.896 2,2c0,0.906 -0.604,1.672 -1.43,1.918c-0.739,0.17 -1.263,0.822 -1.27,1.578c-0.05,0.741 -0.05,1.754 -0.05,1.754c-0,0.414 0.336,0.75 0.75,0.75c0.414,0 0.75,-0.336 0.75,-0.75c0,0 -0,-0.974 0.048,-1.688c0.001,-0.017 0.002,-0.034 0.002,-0.051c-0,-0.063 0.043,-0.117 0.104,-0.13c0.013,-0.003 0.027,-0.006 0.04,-0.01c1.474,-0.413 2.556,-1.766 2.556,-3.371c0,-1.932 -1.568,-3.5 -3.5,-3.5c-1.932,0 -3.5,1.568 -3.5,3.5c0,0.414 0.336,0.75 0.75,0.75c0.414,0 0.75,-0.336 0.75,-0.75Zm2,7.75c-0.552,0 -1,0.448 -1,1c0,0.552 0.448,1 1,1c0.552,0 1,-0.448 1,-1c0,-0.552 -0.448,-1 -1,-1Z"/></g></svg>