<?xml version="1.0" encoding="UTF-8" standalone="no"?> <svg width="100" height="100" viewBox="0 0 100 100" fill="none" xmlns="http://www.w3.org/2000/svg">
<path fill-rule="evenodd" clip-rule="evenodd" d="M50 100C77.6142 100 100 77.6142 100 50C100 22.3858 77.6142 0 50 0C22.3858 0 0 22.3858 0 50C0 77.6142 22.3858 100 50 100ZM70.8607 70V54.5239C70.8607 46.2341 66.4341 42.3762 60.5277 42.3762C55.7617 42.3762 53.6325 44.9994 52.4401 46.836V43.0105H43.4662C43.5869 45.544 43.4662 70 43.4662 70H52.4416V54.9274C52.4416 54.1204 52.5027 53.3171 52.7395 52.7401C53.3889 51.1261 54.8642 49.4577 57.3433 49.4577C60.5903 49.4577 61.8883 51.9331 61.8883 55.5602V70H70.8607ZM52.4401 46.836V46.9235H52.3812C52.3986 46.8956 52.422 46.8647 52.4401 46.836ZM29 34.6627C29 32.0138 31.0078 30 34.0783 30C37.1495 30 39.0366 32.0138 39.0954 34.6627C39.0954 37.2535 37.1495 39.3284 34.0194 39.3284H33.9598C30.9504 39.3284 29 37.2535 29 34.6627ZM38.5048 70H29.5332V43.0105H38.5048V70Z" fill="black"/>
</svg>
