<svg id="Layer_1" data-name="Layer 1" xmlns="http://www.w3.org/2000/svg" viewBox="0 0 128 128"><defs><style>.cls-1{fill:#2d3e50;}</style></defs><title>b</title><path class="cls-1" d="M118.90592,97.60206a11.72787,11.72787,0,0,0-6.31237-8.50383c-10.97919-5.47335-35.073-13.56072-35.073-13.56072H75.481l-6.59189,8.79635L75.07,127.09864h46.05063S120.78721,108.581,118.90592,97.60206Z" id="id_121" style="fill: rgb(0, 0, 0);"></path><path class="cls-1" d="M50.48282,75.5378s-24.09564,8.08736-35.07313,13.561a11.715,11.715,0,0,0-6.31236,8.50326c-1.88286,10.97948-2.218,29.49686-2.218,29.49686H52.9332l6.18093-42.76478L52.52069,75.5378Z" id="id_122" style="fill: rgb(0, 0, 0);"></path><path class="cls-1" d="M81.38389,33.42718H68.3885a3.52089,3.52089,0,0,0-2.48293,1.00351,3.46638,3.46638,0,0,0-.77648,1.1914,7.08462,7.08462,0,0,0-2.24355.04138,3.45674,3.45674,0,0,0-.79127-1.23278,3.52032,3.52032,0,0,0-2.48279-1.00351H46.61623a.8257.8257,0,0,0-.82485.82485v1.50574a.83.83,0,0,0,.32118.65316l.87249.67265v4.75235A3.43591,3.43591,0,0,0,50.417,45.268h8.27947a3.43764,3.43764,0,0,0,3.3678-2.77338l.85158-4.35835a4.64441,4.64441,0,0,1,2.15478-.069l.86509,4.42734a3.43764,3.43764,0,0,0,3.3678,2.77338H77.583a3.43594,3.43594,0,0,0,3.43208-3.4321V37.08358l.87222-.67265a.82971.82971,0,0,0,.32132-.65316V34.252A.82568.82568,0,0,0,81.38389,33.42718ZM60.6588,37.05244,59.686,42.02968a1.01012,1.01012,0,0,1-.98956.81531H50.417a1.01009,1.01009,0,0,1-1.00889-1.009V36.85928A1.01006,1.01006,0,0,1,50.417,35.85037h9.25124a1.00824,1.00824,0,0,1,.99056,1.20206Zm17.93308,4.7835A1.01009,1.01009,0,0,1,77.583,42.845H69.30352a1.01011,1.01011,0,0,1-.98956-.81545l-.97277-4.9771a1.00825,1.00825,0,0,1,.99056-1.20206H77.583a1.01006,1.01006,0,0,1,1.00889,1.00891Z" id="id_123" style="fill: rgb(0, 0, 0);"></path><path class="cls-1" d="M68.32041,51.78871H59.67966a1.45653,1.45653,0,0,0,0,2.91306h8.64075a1.45653,1.45653,0,0,0,0-2.91306Z" id="id_124" style="fill: rgb(0, 0, 0);"></path><path class="cls-1" d="M87.791,49.63363,91.14688,32.333l.4719-2.43239A25.5765,25.5765,0,0,0,66.27521.90108h-4.5531a25.57425,25.57425,0,0,0-25.3407,28.9995l.04368.22432,3.78115,19.50874a24.23893,24.23893,0,0,0,47.5848,0ZM63.99721,63.85228A18.88549,18.88549,0,0,1,45.49927,48.5995L41.99778,30.556q1.31961.05242,2.66545.05243c11.33178,0,21.48089-2.66545,28.312-6.87191a34.40342,34.40342,0,0,0,12.95435,7.172L82.498,48.5995A18.891,18.891,0,0,1,63.99721,63.85228Z" id="id_125" style="fill: rgb(0, 0, 0);"></path></svg>